<svg width="156" height="168" viewBox="0 0 156 168" fill="none" xmlns="http://www.w3.org/2000/svg">
<ellipse opacity="0.6" cx="78" cy="33" rx="78" ry="33" fill="url(#paint0_linear_2246_12498)"/>
<ellipse opacity="0.6" cx="78" cy="84" rx="78" ry="33" fill="url(#paint1_linear_2246_12498)"/>
<ellipse opacity="0.6" cx="78" cy="135" rx="78" ry="33" fill="url(#paint2_linear_2246_12498)"/>
<rect x="58.5" y="69" width="3" height="15" fill="black"/>
<rect x="94.5" y="69" width="3" height="15" fill="black"/>
<rect x="91.5" y="63" width="3" height="6" fill="black"/>
<rect width="3" height="6" transform="matrix(-1 0 0 1 64.5 63)" fill="black"/>
<rect x="85.5" y="60" width="6" height="3" fill="black"/>
<rect width="6" height="3" transform="matrix(-1 0 0 1 70.5 60)" fill="black"/>
<rect width="3" height="6" transform="matrix(1 0 0 -1 91.5 90)" fill="black"/>
<rect width="6" height="3" transform="matrix(1 0 0 -1 85.5 93)" fill="black"/>
<rect x="64.5" y="90" width="3" height="6" transform="rotate(180 64.5 90)" fill="black"/>
<rect x="70.5" y="93" width="6" height="3" transform="rotate(180 70.5 93)" fill="black"/>
<rect x="70.5" y="57" width="15" height="3" fill="black"/>
<rect x="70.5" y="93" width="15" height="3" fill="black"/>
<rect x="51" y="108.131" width="6" height="3" fill="black"/>
<rect x="48" y="111.131" width="3" height="3" fill="black"/>
<rect x="45" y="114" width="3" height="3" fill="black"/>
<rect x="57" y="105" width="9" height="3" fill="black"/>
<rect width="6" height="3" transform="matrix(-1 0 0 1 105 108.131)" fill="black"/>
<rect width="3" height="3" transform="matrix(-1 0 0 1 108 111.131)" fill="black"/>
<rect width="3" height="3" transform="matrix(-1 0 0 1 111 114)" fill="black"/>
<rect width="9" height="3" transform="matrix(-1 0 0 1 99 105)" fill="black"/>
<rect x="66" y="102" width="24" height="3" fill="black"/>
<path d="M66 42V39H90V42H66Z" fill="black"/>
<path d="M33 72H36V96H33V72Z" fill="black"/>
<path d="M120 72H123V96H120V72Z" fill="black"/>
<path d="M66 129V126H90V129H66Z" fill="black"/>
<path d="M51 48V45H57V48H51Z" fill="black"/>
<path d="M57 45V42H66V45H57Z" fill="black"/>
<path d="M42 54H45V57H42V54Z" fill="black"/>
<path d="M45 51H48V54H45V51Z" fill="black"/>
<path d="M48 48H51V51H48V48Z" fill="black"/>
<path d="M39 57H42V63H39V57Z" fill="black"/>
<path d="M36 63H39V72H36V63Z" fill="black"/>
<path d="M105 48V45H99V48H105Z" fill="black"/>
<path d="M99 45V42H90V45H99Z" fill="black"/>
<path d="M114 54H111V57H114V54Z" fill="black"/>
<path d="M111 51H108V54H111V51Z" fill="black"/>
<path d="M108 48H105V51H108V48Z" fill="black"/>
<path d="M117 57H114V63H117V57Z" fill="black"/>
<path d="M120 63H117V72H120V63Z" fill="black"/>
<path d="M105 120V123H99V120H105Z" fill="black"/>
<path d="M99 123V126H90V123H99Z" fill="black"/>
<path d="M114 114H111V111H114V114Z" fill="black"/>
<path d="M111 117H108V114H111V117Z" fill="black"/>
<path d="M108 120H105V117H108V120Z" fill="black"/>
<path d="M117 111H114V105H117V111Z" fill="black"/>
<path d="M120 105H117V96H120V105Z" fill="black"/>
<path d="M51 120.131V123.131H57V120.131H51Z" fill="black"/>
<path d="M57 123.131V126.131H66V123.131H57Z" fill="black"/>
<path d="M42 114.131H45V111.131H42V114.131Z" fill="black"/>
<path d="M45 117.131H48V114.131H45V117.131Z" fill="black"/>
<path d="M48 120.131H51V117.131H48V120.131Z" fill="black"/>
<path d="M39 111.131H42V105.131H39V111.131Z" fill="black"/>
<path d="M36 105.131H39V96.1309H36V105.131Z" fill="black"/>
<defs>
<linearGradient id="paint0_linear_2246_12498" x1="78" y1="0" x2="78" y2="66" gradientUnits="userSpaceOnUse">
<stop stop-color="#7DD1FF" stop-opacity="0.25"/>
<stop offset="0.994792" stop-color="#7DD1FF"/>
</linearGradient>
<linearGradient id="paint1_linear_2246_12498" x1="78" y1="51" x2="78" y2="117" gradientUnits="userSpaceOnUse">
<stop stop-color="#7DD1FF" stop-opacity="0.25"/>
<stop offset="0.994792" stop-color="#7DD1FF"/>
</linearGradient>
<linearGradient id="paint2_linear_2246_12498" x1="78" y1="102" x2="78" y2="168" gradientUnits="userSpaceOnUse">
<stop stop-color="#7DD1FF" stop-opacity="0.25"/>
<stop offset="0.994792" stop-color="#7DD1FF"/>
</linearGradient>
</defs>
</svg>
